<?xml version="1.0" encoding="UTF-8"?>
<svg width="13px" height="19px" viewBox="0 0 13 19" version="1.1" xmlns="http://www.w3.org/2000/svg" xmlns:xlink="http://www.w3.org/1999/xlink">
    <!-- Generator: Sketch 47.1 (45422) - http://www.bohemiancoding.com/sketch -->
    <title>Group</title>
    <desc>Created with Sketch.</desc>
    <defs></defs>
    <g id="Page-1" stroke="none" stroke-width="1" fill="none" fill-rule="evenodd">
        <g id="Desktop" transform="translate(-473.000000, -494.000000)" fill="#C8C8C8">
            <g id="Group" transform="translate(473.000000, 494.000000)">
                <path d="M6.2324,7.9438 C7.3224,7.9438 8.2104,7.0578 8.2104,5.9668 C8.2104,4.8768 7.3224,3.9908 6.2324,3.9908 C5.1424,3.9908 4.2534,4.8768 4.2534,5.9668 C4.2534,7.0578 5.1424,7.9438 6.2324,7.9438" id="Fill-4"></path>
                <path d="M6.2324,1.2197 C8.9964,1.2197 11.2454,3.4687 11.2454,6.2317 C11.2454,8.1417 8.6944,12.8537 6.2324,16.7507 C3.7704,12.8547 1.2184,8.1437 1.2184,6.2317 C1.2184,3.4687 3.4674,1.2197 6.2324,1.2197 M6.2324,-0.0003 C2.7944,-0.0003 0.0004,2.7957 0.0004,6.2317 C0.0004,9.4807 5.4894,17.8607 5.7214,18.2157 C5.8364,18.3877 6.0264,18.4907 6.2324,18.4907 C6.4384,18.4907 6.6284,18.3877 6.7424,18.2167 C6.9754,17.8607 12.4624,9.4807 12.4624,6.2317 C12.4624,2.7957 9.6694,-0.0003 6.2324,-0.0003" id="Fill-1"></path>
            </g>
        </g>
    </g>
</svg>