<?xml version="1.0" encoding="utf-8"?>
<!-- Generator: Adobe Illustrator 16.0.0, SVG Export Plug-In . SVG Version: 6.00 Build 0)  -->
<!DOCTYPE svg PUBLIC "-//W3C//DTD SVG 1.1//EN" "http://www.w3.org/Graphics/SVG/1.1/DTD/svg11.dtd">
<svg version="1.1" id="Capa_1" xmlns="http://www.w3.org/2000/svg" xmlns:xlink="http://www.w3.org/1999/xlink" x="0px" y="0px"
	 width="960px" height="560px" viewBox="0 0 960 560" fill="#f05a52" enable-background="new 0 0 960 560" xml:space="preserve">
<g>
	<g>
		<path d="M663.378,114.786h-14.392V82.752C648.986,37.14,611.847,0,566.234,0H392.489c-45.613,0-82.752,37.14-82.752,82.752v32.033
			h-13.115c-45.612,0-82.752,37.14-82.752,82.752V331.01c0,45.612,37.14,82.752,82.752,82.752h12.999v104.92
			c0,22.748,18.57,41.318,41.318,41.318h256.614c22.748,0,41.317-18.57,41.317-41.318v-104.92h14.508
			c45.612,0,82.753-37.14,82.753-82.752V197.538C746.131,151.925,708.99,114.786,663.378,114.786z M340.958,82.752
			c0-28.319,23.096-51.416,51.416-51.416h173.629c28.319,0,51.416,23.096,51.416,51.416v32.033h-276.46V82.752z M617.533,518.914
			c0,5.455-4.526,9.981-9.98,9.981H350.939c-5.455,0-9.981-4.526-9.981-9.981V345.865h276.576V518.914z M714.794,331.125
			c0,28.319-23.097,51.416-51.416,51.416h-14.392v-36.676h20.659c8.705,0,15.669-6.964,15.669-15.668
			c0-8.705-6.964-15.669-15.669-15.669H286.641c-8.705,0-15.668,6.964-15.668,15.669c0,8.704,6.963,15.668,15.668,15.668h23.096
			v36.676h-13.115c-28.319,0-51.416-23.097-51.416-51.416V197.654c0-28.319,23.097-51.416,51.416-51.416h366.756
			c28.319,0,51.416,23.097,51.416,51.416V331.125z"/>
		<path d="M378.91,422.931h199.511c8.704,0,15.668-6.964,15.668-15.669c0-8.704-6.964-15.668-15.668-15.668H378.91
			c-8.705,0-15.668,6.964-15.668,15.668C363.241,415.967,370.321,422.931,378.91,422.931z"/>
		<path d="M579.697,455.66H380.07c-8.705,0-15.668,6.964-15.668,15.668c0,8.705,6.964,15.669,15.668,15.669h199.511
			c8.705,0,15.669-6.964,15.669-15.669C595.25,462.624,588.286,455.66,579.697,455.66z"/>
		<path d="M663.03,176.298h-31.802c-8.704,0-15.668,6.964-15.668,15.668s6.964,15.668,15.668,15.668h31.802
			c8.704,0,15.668-6.964,15.668-15.668S671.734,176.298,663.03,176.298z"/>
	</g>
</g>
</svg>
