<?xml version="1.0" encoding="UTF-8"?>
<svg width="15px" height="15px" viewBox="0 0 15 15" version="1.1" xmlns="http://www.w3.org/2000/svg" xmlns:xlink="http://www.w3.org/1999/xlink">
    <!-- Generator: Sketch 47.1 (45422) - http://www.bohemiancoding.com/sketch -->
    <title>Fill 1</title>
    <desc>Created with Sketch.</desc>
    <defs></defs>
    <g id="Page-1" stroke="none" stroke-width="1" fill="none" fill-rule="evenodd">
        <g id="Desktop" transform="translate(-505.000000, -505.000000)" fill="#C8C8C8">
            <path d="M511.0332,506.5518 C513.4912,506.5518 515.4912,508.5228 515.4912,510.9478 C515.4912,513.3728 513.4912,515.3438 511.0332,515.3438 C508.5742,515.3438 506.5732,513.3728 506.5732,510.9478 C506.5732,508.5228 508.5742,506.5518 511.0332,506.5518 M519.2062,518.4178 L515.6502,514.7708 C516.5652,513.6988 517.0662,512.3508 517.0662,510.9478 C517.0662,507.6668 514.3602,504.9998 511.0332,504.9998 C507.7062,504.9998 505.0002,507.6668 505.0002,510.9478 C505.0002,514.2278 507.7062,516.8948 511.0332,516.8948 C512.2812,516.8948 513.4722,516.5248 514.4892,515.8178 L518.0742,519.4918 C518.2232,519.6468 518.4242,519.7318 518.6392,519.7318 C518.8442,519.7318 519.0362,519.6548 519.1862,519.5138 C519.4962,519.2178 519.5082,518.7268 519.2062,518.4178" id="Fill-1"></path>
        </g>
    </g>
</svg>